<?xml version="1.0" encoding="UTF-8" standalone="no"?>
<!DOCTYPE svg PUBLIC "-//W3C//DTD SVG 1.1//EN" "http://www.w3.org/Graphics/SVG/1.1/DTD/svg11.dtd">
<svg width="100%" height="100%" viewBox="0 0 256 230" version="1.1" xmlns="http://www.w3.org/2000/svg" xmlns:xlink="http://www.w3.org/1999/xlink" xml:space="preserve" xmlns:serif="http://www.serif.com/" style="fill-rule:evenodd;clip-rule:evenodd;stroke-linejoin:round;stroke-miterlimit:2;">
    <g transform="matrix(1,0,0,1,-101.748,-114.662)">
        <g id="Calque-1" serif:id="Calque 1">
            <g transform="matrix(1,0,0,1,119.993,280.089)">
                <path d="M0,21.328L-8.867,21.328L-8.867,-8.755L-18.245,-8.755L-18.245,30.083L0,30.083L0,21.328Z" style="fill-rule:nonzero;"/>
            </g>
            <g transform="matrix(1,0,0,1,155.956,287.606)">
                <path d="M0,7.02L0,-16.272L-9.346,-16.272L-9.346,7.02C-9.346,11.403 -11.475,14.485 -15.91,14.485C-20.52,14.485 -22.597,11.455 -22.597,7.072L-22.597,-16.272L-31.943,-16.272L-31.943,7.072C-31.943,16.792 -26.948,23.292 -16.002,23.292C-5.368,23.292 0,16.398 0,7.02" style="fill-rule:nonzero;"/>
            </g>
            <g transform="matrix(1,0,0,1,195.552,310.172)">
                <path d="M0,-38.84L-9.045,-38.84L-9.045,-15.379L-23.636,-38.84L-33.293,-38.84L-33.293,0L-24.257,0L-24.257,-22.962L-9.275,0L0,0L0,-38.84Z" style="fill-rule:nonzero;"/>
            </g>
            <g transform="matrix(1,0,0,1,214.11,288.449)">
                <path d="M0,4.608L3.427,-5.215L6.853,4.608L0,4.608ZM-1.496,-17.116L-15.08,21.724L-5.879,21.724L-2.68,12.46L9.553,12.46L12.814,21.724L22.752,21.724L8.379,-17.116L-1.496,-17.116Z" style="fill-rule:nonzero;"/>
            </g>
            <g transform="matrix(1,0,0,1,235.346,301.417)">
                <path d="M0,-21.33L6.511,-21.33L6.511,8.755L15.878,8.755L15.878,-21.33L22.338,-21.33L22.338,-30.085L0,-30.085L0,-21.33Z" style="fill-rule:nonzero;"/>
            </g>
            <g transform="matrix(1,0,0,1,281.484,301.417)">
                <path d="M0,-21.33L0,-30.085L-18.412,-30.085L-18.412,8.755L0.166,8.755L0.166,0L-9.034,0L-9.034,-6.678L-0.281,-6.678L-0.281,-15.327L-9.034,-15.327L-9.034,-21.33L0,-21.33Z" style="fill-rule:nonzero;"/>
            </g>
            <g transform="matrix(1,0,0,1,307.301,302.078)">
                <path d="M0,-22.718C2.765,-22.707 5.427,-21.665 7.466,-19.8L13.023,-26.872C9.382,-30.004 4.696,-31.648 -0.104,-31.473C-12.515,-31.473 -20.592,-22.5 -20.592,-11.274C-20.592,-0.049 -12.856,8.82 0.063,8.82C4.867,8.93 9.515,7.113 12.971,3.774L7.466,-2.853C5.441,-1.006 2.806,0.034 0.063,0.065C-6.448,0.065 -10.769,-4.929 -10.769,-11.358C-10.769,-17.786 -6.905,-22.718 0,-22.718" style="fill-rule:nonzero;"/>
            </g>
            <g transform="matrix(1,0,0,1,347.488,295.582)">
                <path d="M0,-9.659L-13.469,-9.659L-13.469,-24.248L-22.847,-24.248L-22.847,14.589L-13.469,14.589L-13.469,-0.727L0,-0.727L0,14.589L9.378,14.589L9.378,-24.248L0,-24.248L0,-9.659Z" style="fill-rule:nonzero;"/>
            </g>
            <g transform="matrix(1,0,0,1,112.517,334.617)">
                <path d="M0,5.326C0,2.327 -2.441,1.64 -5.069,1.319C-6.575,1.132 -7.873,0.831 -7.873,-0.27C-7.873,-1.206 -7.031,-1.942 -5.265,-1.942C-4.104,-1.984 -2.992,-1.462 -2.286,-0.54L-0.396,-1.505C-1.35,-3.447 -3.375,-4.009 -5.339,-4.009C-7.654,-4.009 -10.208,-2.97 -10.208,-0.344C-10.208,2.482 -7.841,3.168 -5.265,3.468C-3.593,3.654 -2.358,4.133 -2.358,5.326C-2.358,6.604 -3.76,7.175 -5.245,7.175C-6.725,7.313 -8.136,6.518 -8.786,5.182L-10.768,6.219C-9.835,8.526 -7.85,9.335 -5.285,9.335C-2.482,9.335 0,8.132 0,5.326" style="fill-rule:nonzero;"/>
            </g>
            <g transform="matrix(-1,0,0,1,244.05,215.895)">
                <rect x="120.846" y="115.066" width="2.358" height="12.587"/>
            </g>
            <g transform="matrix(1,0,0,1,145.239,330.973)">
                <path d="M0,12.584L0,0L-2.711,0L-6.647,5.42L-10.593,0L-13.325,0L-13.325,12.584L-10.944,12.584L-10.944,3.436L-6.937,8.919L-6.469,8.919L-2.367,3.456L-2.367,12.584L0,12.584Z" style="fill-rule:nonzero;"/>
            </g>
            <g transform="matrix(1,0,0,1,156.309,341.256)">
                <path d="M0,-8.051L3.562,-8.051C4.793,-8.137 5.857,-7.207 5.942,-5.977C6.025,-4.746 5.096,-3.682 3.866,-3.596C3.764,-3.589 3.663,-3.589 3.562,-3.596L0,-3.596L0,-8.051ZM0,-1.416L3.562,-1.416C6.019,-1.297 8.109,-3.193 8.226,-5.65C8.345,-8.107 6.448,-10.198 3.991,-10.315C3.848,-10.321 3.706,-10.321 3.562,-10.315L-2.367,-10.315L-2.367,2.27L0,2.27L0,-1.416Z" style="fill-rule:nonzero;"/>
            </g>
            <g transform="matrix(1,0,0,1,172.56,343.549)">
                <path d="M0,-12.587L0,0L8.847,0L8.847,-2.203L2.378,-2.203L2.378,-12.587L0,-12.587Z" style="fill-rule:nonzero;"/>
            </g>
            <g transform="matrix(-1,0,0,1,381.498,215.895)">
                <rect x="189.57" y="115.066" width="2.358" height="12.587"/>
            </g>
            <g transform="matrix(1,0,0,1,209.674,341.263)">
                <path d="M0,-8.007L0,-10.291L-9.043,-10.291L-9.043,2.284L-6.676,2.284L-6.676,-2.38L-0.362,-2.38L-0.362,-4.571L-6.676,-4.571L-6.676,-8.007L0,-8.007Z" style="fill-rule:nonzero;"/>
            </g>
            <g transform="matrix(1,0,0,1,224.826,330.962)">
                <path d="M0,12.587L0,7.383L5.015,0.104L5.015,0L2.16,0L-1.184,5.193L-4.383,0L-7.207,0L-7.207,0.104L-2.378,7.383L-2.378,12.587L0,12.587Z" style="fill-rule:nonzero;"/>
            </g>
            <g transform="matrix(1,0,0,1,253.946,330.962)">
                <path d="M0,12.587L0,7.383L5.015,0.104L5.015,0L2.158,0L-1.186,5.193L-4.383,0L-7.209,0L-7.209,0.104L-2.369,7.383L-2.369,12.587L0,12.587Z" style="fill-rule:nonzero;"/>
            </g>
            <g transform="matrix(1,0,0,1,276.51,337.201)">
                <path d="M0,0.146C-0.003,2.22 -1.158,4.437 -4.153,4.437C-7.154,4.437 -8.234,2.225 -8.309,0.157C-8.381,-1.908 -7.134,-4.359 -4.153,-4.359C-1.179,-4.359 0.027,-1.968 0,0.146M-4.112,-6.489C-8.464,-6.489 -10.592,-3.166 -10.592,0.137C-10.793,3.521 -8.212,6.426 -4.83,6.626C-4.589,6.642 -4.351,6.642 -4.112,6.628C0.302,6.628 2.305,3.377 2.336,0.126C2.55,-3.308 -0.06,-6.267 -3.494,-6.48C-3.701,-6.494 -3.905,-6.496 -4.112,-6.489" style="fill-rule:nonzero;"/>
            </g>
            <g transform="matrix(1,0,0,1,287.061,343.834)">
                <path d="M0,-12.852L0,-5.645C-0.214,-2.752 1.96,-0.232 4.855,-0.018C5.101,0 5.35,0 5.598,-0.016C8.712,-0.016 11.038,-1.928 11.038,-5.645L11.038,-12.852L8.68,-12.852L8.68,-5.645C8.68,-3.496 7.571,-2.176 5.566,-2.176C3.562,-2.176 2.315,-3.382 2.315,-5.645L2.315,-12.852L0,-12.852Z" style="fill-rule:nonzero;"/>
            </g>
            <g transform="matrix(1,0,0,1,313.187,337.36)">
                <path d="M0,-0.169C-0.097,-0.16 -0.193,-0.16 -0.288,-0.169L-0.288,-0.158L-3.902,-0.158L-3.902,-4.187L-0.288,-4.187C0.821,-4.266 1.787,-3.431 1.865,-2.322C1.944,-1.213 1.109,-0.248 0,-0.169M4.239,-2.234C4.239,-4.406 2.671,-6.388 -0.288,-6.388L-6.28,-6.388L-6.28,6.219L-3.902,6.219L-3.902,2.002L-1.618,2.002L2.047,6.219L4.873,6.219L4.873,6.052L1.062,1.753C3.006,1.469 4.396,-0.275 4.239,-2.234" style="fill-rule:nonzero;"/>
            </g>
            <g transform="matrix(1,0,0,1,0,215.895)">
                <rect x="335.62" y="115.066" width="2.358" height="12.587"/>
            </g>
            <g transform="matrix(1,0,0,1,352.878,330.962)">
                <path d="M0,12.544L0,2.158L3.987,2.158L3.987,0L-6.397,0L-6.365,2.158L-2.378,2.158L-2.378,12.544L0,12.544Z" style="fill-rule:nonzero;"/>
            </g>
            <g transform="matrix(-1,0,0,1,459.308,-111.54)">
                <rect x="177.32" y="232.743" width="104.668" height="104.668" style="fill:white;"/>
            </g>
            <g transform="matrix(96.1357,-1.20792e-13,-1.20792e-13,-96.1357,145.883,173.69)">
                <rect x="0.744" y="-0.11" width="0.213" height="0.223" style="fill:url(#_Radial1);"/>
            </g>
            <g transform="matrix(66.7646,69.1705,69.1705,-66.7646,172.84,112.804)">
                <path d="M0.88,-0.879L1.731,0.002L0.85,0.852L-0.001,-0.029L0.88,-0.879ZM0.818,-0.316L0.564,-0.071C0.539,-0.047 0.537,-0.007 0.561,0.017L0.914,0.383C0.937,0.407 0.977,0.407 1.002,0.382C1.028,0.357 1.029,0.318 1.006,0.293L0.929,0.214L1.136,0.014C1.162,-0.01 1.163,-0.05 1.14,-0.075L0.906,-0.316C0.883,-0.341 0.843,-0.34 0.818,-0.316Z" style="fill:url(#_Radial2);fill-rule:nonzero;"/>
            </g>
        </g>
    </g>
    <defs>
        <radialGradient id="_Radial1" cx="0" cy="0" r="1" gradientUnits="userSpaceOnUse" gradientTransform="matrix(0.694483,-0.719509,-0.719509,-0.694483,0.26095,0.614552)"><stop offset="0" style="stop-color:rgb(234,33,46);stop-opacity:1"/><stop offset="0.5" style="stop-color:rgb(174,21,30);stop-opacity:1"/><stop offset="1" style="stop-color:rgb(155,15,23);stop-opacity:1"/></radialGradient>
        <radialGradient id="_Radial2" cx="0" cy="0" r="1" gradientUnits="userSpaceOnUse" gradientTransform="matrix(1,0,0,-1,0,-0.0270393)"><stop offset="0" style="stop-color:rgb(234,33,46);stop-opacity:1"/><stop offset="0.5" style="stop-color:rgb(174,21,30);stop-opacity:1"/><stop offset="1" style="stop-color:rgb(155,15,23);stop-opacity:1"/></radialGradient>
    </defs>
</svg>
