<?xml version="1.0" encoding="UTF-8" standalone="no"?>
<!DOCTYPE svg PUBLIC "-//W3C//DTD SVG 1.1//EN" "http://www.w3.org/Graphics/SVG/1.1/DTD/svg11.dtd">
<svg width="100%" height="100%" viewBox="0 0 3167 1622" version="1.1" xmlns="http://www.w3.org/2000/svg" xmlns:xlink="http://www.w3.org/1999/xlink" xml:space="preserve" xmlns:serif="http://www.serif.com/" style="fill-rule:evenodd;clip-rule:evenodd;stroke-linejoin:round;stroke-miterlimit:2;">
    <g transform="matrix(1,0,0,1,-83.3334,-230.769)">
        <g transform="matrix(4.16667,0,0,4.16667,0,50.0013)">
            <g id="Layer-1" serif:id="Layer 1">
                <g>
                    <g>
                        <g transform="matrix(1,0,0,1,98.877,372.293)">
                            <path d="M0,-43.863L-22.778,-39.227C-24.467,-48.081 -31.777,-52.444 -39.227,-52.444C-46.96,-52.444 -51.88,-48.226 -51.88,-42.883C-51.88,-39.082 -50.199,-36.274 -44.292,-35.009L-24.745,-30.646C-8.436,-26.991 1.126,-18.131 1.126,-3.232C1.126,16.878 -16.733,27.281 -37.684,27.281C-58.913,27.281 -76.348,17.156 -78.877,-1.259L-54.973,-5.901C-52.583,3.8 -45.835,8.018 -36.419,8.018C-27.698,8.018 -22.494,4.084 -22.494,-1.682C-22.494,-5.901 -24.467,-8.569 -31.214,-9.979L-50.9,-14.198C-64.396,-17.29 -76.208,-24.322 -76.208,-41.472C-76.208,-59.755 -61.025,-71.144 -38.948,-71.144C-18.421,-71.144 -3.516,-61.019 0,-43.863" style="fill:rgb(83,195,195);fill-rule:nonzero;"/>
                        </g>
                        <g transform="matrix(1,0,0,1,161.187,308.459)">
                            <path d="M0,85.916C-5.483,88.869 -11.25,91.114 -19.263,91.114C-36.843,91.114 -47.385,81.553 -47.385,62.992L-47.385,36.28L-60.185,36.28L-60.185,18.422L-47.385,18.422L-47.385,-5.198L-24.891,-5.198L-24.891,18.422L-4.079,18.422L-4.079,36.28L-24.891,36.28L-24.891,60.747C-24.891,68.058 -21.375,71.011 -15.468,71.011C-12.376,71.011 -8.158,69.885 -5.205,68.196L0,85.916Z" style="fill:rgb(83,195,195);fill-rule:nonzero;"/>
                        </g>
                        <g transform="matrix(1,0,0,1,218.007,396.905)">
                            <path d="M0,-70.448L-0.987,-47.948L-5.059,-47.948C-20.812,-47.948 -29.387,-39.797 -29.387,-21.514L-29.387,0.563L-51.881,0.563L-51.881,-70.024L-29.387,-70.024L-29.387,-56.523C-24.321,-64.959 -16.594,-71.011 -5.059,-71.011C-3.092,-71.011 -1.688,-70.865 0,-70.448" style="fill:rgb(83,195,195);fill-rule:nonzero;"/>
                        </g>
                        <g transform="matrix(1,0,0,1,264.703,354.724)">
                            <path d="M0,14.899L0,13.356L-15.461,13.356C-21.09,13.356 -24.606,16.31 -24.606,20.667C-24.606,25.163 -20.666,27.977 -14.76,27.977C-7.025,27.977 0,22.772 0,14.899M21.653,-1.973L21.653,42.744L0,42.744L0,37.539C-4.92,41.756 -11.667,44.849 -21.09,44.849C-36.836,44.849 -47.385,35.711 -47.385,21.793C-47.385,8.012 -36.836,-0.986 -17.998,-0.986L0,-0.986L0,-2.39C0,-8.296 -4.072,-12.237 -9.979,-12.237C-16.733,-12.237 -20.666,-9.561 -21.792,-3.376L-43.021,-7.734C-39.929,-21.374 -27.559,-29.95 -10.681,-29.95C9.145,-29.95 21.653,-19.97 21.653,-1.973" style="fill:rgb(83,195,195);fill-rule:nonzero;"/>
                        </g>
                        <g transform="matrix(1,0,0,1,368.345,368.08)">
                            <path d="M0,-13.918L0,29.388L-22.354,29.388L-22.354,-9.138C-22.354,-17.435 -27.281,-23.063 -34.453,-23.063C-43.306,-23.063 -49.073,-17.018 -49.073,-3.377L-49.073,29.388L-71.567,29.388L-71.567,-41.199L-49.073,-41.199L-49.073,-34.452C-43.729,-40.074 -36.28,-43.306 -27.42,-43.306C-10.965,-43.306 0,-31.638 0,-13.918" style="fill:rgb(83,195,195);fill-rule:nonzero;"/>
                        </g>
                        <g transform="matrix(1,0,0,1,431.78,395.216)">
                            <path d="M0,-33.042C0,-43.868 -8.157,-51.324 -17.296,-51.324C-27.135,-51.324 -34.307,-43.868 -34.307,-33.042C-34.307,-22.076 -27.135,-14.767 -17.296,-14.767C-8.157,-14.767 0,-22.076 0,-33.042M22.494,3.655C22.494,25.447 3.934,37.399 -18.984,37.399C-35.154,37.399 -47.384,31.777 -54.277,20.389L-35.571,8.86C-30.373,15.184 -26.294,17.574 -18.984,17.574C-8.859,17.574 0,12.515 0,1.404L0,-3.377C-5.482,1.55 -12.793,4.357 -21.937,4.357C-40.637,4.357 -56.383,-10.688 -56.383,-33.042C-56.383,-55.258 -40.637,-70.441 -21.937,-70.441C-12.793,-70.441 -5.482,-67.634 0,-62.714L0,-68.335L22.494,-68.335L22.494,3.655Z" style="fill:rgb(83,195,195);fill-rule:nonzero;"/>
                        </g>
                        <g transform="matrix(1,0,0,1,484.807,370.185)">
                            <path d="M0,-16.023L29.109,-16.023C26.997,-23.619 21.375,-27.134 14.905,-27.134C8.582,-27.134 2.112,-23.195 0,-16.023M51.324,-2.244L-0.417,-2.244C1.41,6.192 7.172,11.39 14.767,11.39C19.971,11.39 26.017,10.125 29.811,3.239L49.775,7.311C43.729,22.216 30.937,29.388 14.767,29.388C-5.622,29.388 -22.493,14.343 -22.493,-8.011C-22.493,-30.227 -5.622,-45.411 14.905,-45.411C34.87,-45.411 50.9,-31.075 51.324,-8.011L51.324,-2.244Z" style="fill:rgb(83,195,195);fill-rule:nonzero;"/>
                        </g>
                        <g transform="matrix(1,0,0,1,589.012,321.961)">
                            <path d="M0,56.807C7.456,56.807 11.535,52.728 11.535,46.259C11.535,40.075 7.032,36.134 0.424,36.134L-21.652,36.134L-21.652,56.807L0,56.807ZM-21.652,20.249L-1.403,20.249C5.489,20.249 9.985,16.031 9.985,9.701C9.985,3.794 5.344,0 -0.562,0L-21.652,0L-21.652,20.249ZM17.018,27.42C25.731,28.122 35.154,34.87 35.154,49.074C35.154,64.68 24.606,75.507 4.079,75.507L-44.849,75.507L-44.849,-18.7L3.939,-18.7C21.235,-18.7 32.479,-8.436 32.479,7.033C32.479,19.964 23.342,26.149 17.018,26.858L17.018,27.42Z" style="fill:rgb(242,206,47);fill-rule:nonzero;"/>
                        </g>
                        <g transform="matrix(1,0,0,1,651.461,370.185)">
                            <path d="M0,-16.023L29.108,-16.023C26.996,-23.619 21.374,-27.134 14.905,-27.134C8.581,-27.134 2.112,-23.195 0,-16.023M51.324,-2.244L-0.418,-2.244C1.41,6.192 7.171,11.39 14.766,11.39C19.971,11.39 26.016,10.125 29.811,3.239L49.774,7.311C43.729,22.216 30.936,29.388 14.766,29.388C-5.622,29.388 -22.494,14.343 -22.494,-8.011C-22.494,-30.227 -5.622,-45.411 14.905,-45.411C34.869,-45.411 50.9,-31.075 51.324,-8.011L51.324,-2.244Z" style="fill:rgb(242,206,47);fill-rule:nonzero;"/>
                        </g>
                        <g transform="matrix(1,0,0,1,728.676,370.185)">
                            <path d="M0,-16.023L29.108,-16.023C26.996,-23.619 21.374,-27.134 14.905,-27.134C8.581,-27.134 2.112,-23.195 0,-16.023M51.324,-2.244L-0.417,-2.244C1.41,6.192 7.171,11.39 14.766,11.39C19.971,11.39 26.017,10.125 29.811,3.239L49.774,7.311C43.729,22.216 30.937,29.388 14.766,29.388C-5.622,29.388 -22.494,14.343 -22.494,-8.011C-22.494,-30.227 -5.622,-45.411 14.905,-45.411C34.869,-45.411 50.9,-31.075 51.324,-8.011L51.324,-2.244Z" style="fill:rgb(242,206,47);fill-rule:nonzero;"/>
                        </g>
                    </g>
                    <g>
                        <g transform="matrix(0,-1,-1,0,406.078,43.3851)">
                            <path d="M-120.006,-120.006C-186.283,-120.006 -240.012,-66.277 -240.012,0.001C-240.012,66.277 -186.283,120.006 -120.006,120.006C-53.728,120.006 0.001,66.277 0.001,0.001C0.001,-66.277 -53.728,-120.006 -120.006,-120.006" style="fill:rgb(23,23,49);fill-rule:nonzero;"/>
                        </g>
                        <g transform="matrix(1,0,0,1,434.586,103.631)">
                            <path d="M0,16.885L-57.014,16.885C-61.675,16.885 -65.457,13.103 -65.457,8.443C-65.457,3.781 -61.675,0 -57.014,0L0,0C4.661,0 8.442,3.781 8.442,8.443C8.442,13.103 4.661,16.885 0,16.885" style="fill:rgb(84,196,196);fill-rule:nonzero;"/>
                        </g>
                        <g transform="matrix(1,0,0,1,450.537,180.607)">
                            <path d="M0,16.885L-88.916,16.885C-93.577,16.885 -97.358,13.104 -97.358,8.443C-97.358,3.781 -93.577,0 -88.916,0L0,0C4.661,0 8.442,3.781 8.442,8.443C8.442,13.104 4.661,16.885 0,16.885" style="fill:rgb(242,208,47);fill-rule:nonzero;"/>
                        </g>
                        <g transform="matrix(1,0,0,1,434.586,206.265)">
                            <path d="M0,16.885L-57.014,16.885C-61.675,16.885 -65.457,13.104 -65.457,8.443C-65.457,3.782 -61.675,0 -57.014,0L0,0C4.661,0 8.442,3.782 8.442,8.443C8.442,13.104 4.661,16.885 0,16.885" style="fill:rgb(84,196,196);fill-rule:nonzero;"/>
                        </g>
                        <g transform="matrix(1,0,0,1,466.493,194.565)">
                            <path d="M0,-39.617L-120.828,-39.617C-125.488,-39.617 -129.271,-35.835 -129.271,-31.174C-129.271,-26.513 -125.488,-22.732 -120.828,-22.732L-53.86,-22.732C-51.688,-21.784 -50.03,-19.83 -49.635,-17.364L-48.152,-8.133C-46.847,0 -35.084,-0.173 -34.019,-8.342L-32.869,-17.155C-32.536,-19.707 -30.855,-21.754 -28.623,-22.732L0,-22.732C4.661,-22.732 8.441,-26.513 8.441,-31.174C8.441,-35.835 4.661,-39.617 0,-39.617" style="fill:rgb(84,196,196);fill-rule:nonzero;"/>
                        </g>
                        <g transform="matrix(1,0,0,1,450.537,166.631)">
                            <path d="M0,-37.342L-88.915,-37.342C-93.576,-37.342 -97.358,-33.56 -97.358,-28.899C-97.358,-24.238 -93.576,-20.457 -88.915,-20.457L-60.252,-20.457C-57.113,-20.457 -54.459,-18.128 -54.054,-15.015L-53.048,-7.3C-52.115,-0.152 -41.822,0 -40.679,-7.118L-39.382,-15.197C-38.896,-18.228 -36.279,-20.457 -33.21,-20.457L0,-20.457C4.661,-20.457 8.443,-24.238 8.443,-28.899C8.443,-33.56 4.661,-37.342 0,-37.342" style="fill:rgb(242,208,47);fill-rule:nonzero;"/>
                        </g>
                    </g>
                </g>
            </g>
        </g>
    </g>
</svg>
