<?xml version="1.0" encoding="UTF-8" standalone="no"?>
<!DOCTYPE svg PUBLIC "-//W3C//DTD SVG 1.1//EN" "http://www.w3.org/Graphics/SVG/1.1/DTD/svg11.dtd">
<svg width="100%" height="100%" viewBox="0 0 250 44" version="1.1" xmlns="http://www.w3.org/2000/svg" xmlns:xlink="http://www.w3.org/1999/xlink" xml:space="preserve" xmlns:serif="http://www.serif.com/" style="fill-rule:evenodd;clip-rule:evenodd;stroke-linejoin:round;stroke-miterlimit:2;">
    <g transform="matrix(1,0,0,1,-1.352e-05,-5.284e-05)">
        <g transform="matrix(0.431412,0,0,0.431412,-52.9602,-53.2449)">
            <g transform="matrix(0.679302,0,0,0.679302,39.3689,39.5806)">
                <g>
                    <path d="M323.26,257.31C330.21,253.19 336.26,247.66 340.89,240.97L349,240.97C353.12,240.97 356.46,237.62 356.46,233.51C356.46,229.4 353.11,226.05 349,226.05L348.36,226.05C349.9,221.29 350.93,216.4 351.19,211.25L359.17,211.25C363.29,211.25 366.63,207.9 366.63,203.79C366.63,199.67 363.28,196.33 359.17,196.33L350.93,196.33C350.42,191.18 349.13,186.16 347.33,181.53L348.87,181.53C352.99,181.53 356.33,178.18 356.33,174.07C356.33,169.95 352.98,166.61 348.87,166.61L338.83,166.61C328.53,153.74 312.32,145.12 294.17,145.12L281.43,145.12C273.45,145.12 265.73,146.79 258.78,149.88L272.16,149.88C303.05,149.88 328.4,175.23 328.4,206.12C328.4,234.69 306.91,258.37 279.24,261.97C277.57,262.1 275.89,262.23 274.09,262.23L216.18,262.23C225.57,257.08 233.68,249.75 239.73,241C240.12,241.13 240.63,241.13 241.02,241.13L291.47,241.13C295.59,241.13 298.93,237.78 298.93,233.67C298.93,229.56 295.58,226.21 291.47,226.21L247.58,226.21C249.38,221.45 250.67,216.56 251.44,211.41L309.22,211.41C313.34,211.41 316.68,208.06 316.68,203.95C316.68,199.84 313.33,196.49 309.22,196.49L252.08,196.49C251.69,191.34 250.66,186.45 249.25,181.69L291.72,181.69C295.84,181.69 299.18,178.34 299.18,174.23C299.18,170.12 295.83,166.77 291.72,166.77L242.7,166.77C230.73,146.56 208.6,132.92 183.5,132.92L178.61,132.92C155.7,132.92 135.24,144.37 122.76,161.75C133.96,148.75 150.69,140.52 169.22,140.52C195.73,140.52 218.38,157.38 226.88,180.93L195.74,180.93C189.56,173.08 179.91,168.06 169.23,168.06C150.57,168.32 135.51,183.37 135.51,202.04C135.51,220.71 150.7,235.89 169.36,235.89C180.43,235.89 190.21,230.61 196.39,222.38L164.22,222.38C164.22,207.45 176.32,195.48 191.12,195.48L230.37,195.48C230.63,197.67 230.76,199.86 230.76,202.04C230.76,235.89 203.22,263.43 169.37,263.43C151.48,263.43 135.39,255.71 124.07,243.48C136.68,259.95 156.5,270.63 178.77,270.63L279.67,270.63C331.92,270.63 374.26,267.54 374.26,263.55C374.22,260.91 353.5,258.47 323.26,257.31Z" style="fill:rgb(247,133,87);fill-rule:nonzero;"/>
                </g>
            </g>
            <g id="Fill-1-Copy-8_3_" transform="matrix(0.679302,0,0,0.679302,39.3689,39.5806)">
                <path d="M684.3,141.6L671.62,141.6L671.62,166.17L660.62,166.17C658.71,166.17 657.25,167.63 657.25,169.54L657.25,183.45L671.61,183.45L671.61,260.76L689.9,260.76C691.81,260.76 693.27,259.3 693.27,257.39L693.27,183.56L709.09,183.56L709.09,169.65C709.09,167.74 707.63,166.28 705.72,166.28L693.27,166.28L693.27,150.57C693.28,145.64 689.24,141.6 684.3,141.6Z" style="fill:rgb(36,39,94);"/>
            </g>
            <g id="Fill-2-Copy-10_3_" transform="matrix(0.679302,0,0,0.679302,39.3689,39.5806)">
                <path d="M716.62,260.88L734.91,260.88C736.82,260.88 738.28,259.42 738.28,257.51L738.28,150.58C738.28,145.64 734.24,141.6 729.3,141.6L716.62,141.6L716.62,260.88Z" style="fill:rgb(36,39,94);"/>
            </g>
            <g id="Fill-3-Copy-8_3_" transform="matrix(0.679302,0,0,0.679302,39.3689,39.5806)">
                <path d="M754.43,260.88L772.72,260.88C774.63,260.88 776.09,259.42 776.09,257.51L776.09,175.26C776.09,170.32 772.05,166.28 767.11,166.28L754.43,166.28L754.43,260.88Z" style="fill:rgb(36,39,94);"/>
            </g>
            <g id="Fill-5-Copy-8_2_" transform="matrix(0.679302,0,0,0.679302,39.3689,39.5806)">
                <path d="M765.32,123.42C761.28,123.42 758.03,124.65 755.45,127.24C752.87,129.83 751.63,133.07 751.63,137.11C751.63,141.04 752.86,144.18 755.45,146.65C758.03,149.12 761.28,150.35 765.32,150.35C769.25,150.35 772.39,149.12 774.97,146.65C777.55,144.18 778.79,140.93 778.79,137.11C778.79,133.07 777.56,129.82 774.97,127.24C772.5,124.66 769.25,123.42 765.32,123.42" style="fill:rgb(36,39,94);"/>
            </g>
            <g id="Fill-7-Copy-8_3_" transform="matrix(0.679302,0,0,0.679302,39.3689,39.5806)">
                <path d="M811.1,206.01C811.1,198.72 813.12,192.99 817.05,188.84C820.98,184.69 826.48,182.67 833.32,182.67C839.6,182.67 844.32,184.58 847.46,188.39C850.6,192.21 852.06,197.48 852.06,204.21L852.06,260.99L870.35,260.99C872.26,260.99 873.72,259.53 873.72,257.62L873.72,201.52C873.72,190.19 870.69,181.21 864.52,174.37C858.35,167.53 849.71,164.16 838.49,164.16C831.31,164.16 825.25,165.62 820.2,168.42C815.15,171.23 811.56,174.82 809.32,178.86L809.32,175.27C809.32,170.33 805.28,166.29 800.34,166.29L789.23,166.29L789.23,260.99L807.52,260.99C809.43,260.99 810.89,259.53 810.89,257.62L810.89,206.01L811.1,206.01Z" style="fill:rgb(36,39,94);"/>
            </g>
            <g id="Combined-Shape-Copy-2_3_" transform="matrix(0.679302,0,0,0.679302,39.3689,39.5806)">
                <path d="M527.44,179.08C520.26,168.53 508.25,161.69 494.56,161.69C472.57,161.69 454.73,179.53 454.73,201.52C454.73,223.51 472.57,241.35 494.56,241.35C510.72,241.35 524.63,231.7 530.91,217.9L487.93,217.9C487.93,203.87 499.26,192.54 513.29,192.54L555.25,192.54C555.7,195.46 555.92,198.49 555.92,201.63C555.92,235.52 528.43,263.01 494.54,263.01C460.65,263.01 433.16,235.52 433.16,201.63C433.16,167.74 460.65,140.14 494.54,140.14C520.57,140.14 542.68,156.3 551.65,179.08L527.44,179.08Z" style="fill:rgb(36,39,94);"/>
            </g>
            <g id="Combined-Shape-Copy-3_3_" transform="matrix(0.679302,0,0,0.679302,39.3689,39.5806)">
                <path d="M948.66,197.59C943.95,191.64 936.65,187.83 928.58,187.83C914.44,187.83 903,199.28 903,213.41C903,227.55 914.45,238.99 928.58,238.99C938.45,238.99 947.09,233.38 951.36,225.19L924.77,225.19C924.77,215.88 932.18,208.25 941.38,208.02L975.49,208.02C975.71,209.82 975.83,211.61 975.83,213.41C975.83,239.44 954.74,260.65 928.59,260.65C902.56,260.65 881.35,239.56 881.35,213.41C881.35,187.26 902.44,166.17 928.59,166.17C949.12,166.17 966.63,179.3 973.14,197.59L948.66,197.59Z" style="fill:rgb(36,39,94);"/>
            </g>
            <g transform="matrix(0.679302,0,0,0.679302,39.3689,39.5806)">
                <path d="M657.82,214.2C657.76,188.11 636.69,167.07 610.58,167.07C584.55,167.07 563.34,188.16 563.34,214.31C563.34,240.34 584.43,261.55 610.58,261.55C620.02,261.55 628.8,258.8 636.16,254.06L636.16,260.88L648.84,260.88C653.78,260.88 657.82,256.84 657.82,251.9L657.82,214.2ZM610.59,240.23C596.34,240.23 584.67,228.67 584.67,214.31C584.67,200.06 596.23,188.39 610.59,188.39C624.84,188.39 636.51,199.95 636.51,214.31C636.5,228.56 624.95,240.23 610.59,240.23Z" style="fill:rgb(36,39,94);"/>
            </g>
        </g>
    </g>
</svg>
