<?xml version="1.0" encoding="utf-8"?>
<!-- Generator: Adobe Illustrator 24.0.1, SVG Export Plug-In . SVG Version: 6.00 Build 0)  -->
<svg version="1.1" id="Calque_1" xmlns="http://www.w3.org/2000/svg" xmlns:xlink="http://www.w3.org/1999/xlink" x="0px" y="0px"
	 viewBox="0 0 3473.1 957.5" style="enable-background:new 0 0 3473.1 957.5;" xml:space="preserve">
<style type="text/css">
	.st0{fill:#23393E;}
	.st1{fill:#35AB52;}
	.st2{fill:#7C8892;}
	.st3{fill:#435B60;}
	.st4{fill:#201D19;}
	.st5{fill:#63B450;}
	.st6{fill:#546C78;}
	.st7{fill:#696E79;}
</style>
<g>
	<path class="st0" d="M1187,702.7h64.8V496.3c5.2-8.4,13.8-15.8,25.8-22.2c12-6.4,24.8-9.6,38.4-9.6c8,0,15.2,0.8,21.6,2.4l5.4-65.4
		c-4.8-0.8-9.4-1.2-13.8-1.2c-28.8,0-56.4,15.8-82.8,47.4l-4.2-41.4H1187V702.7L1187,702.7z M1522.4,708.7
		c34.4,0,67.6-7.6,99.6-22.8l-6-51c-26.4,13.6-55.4,20.4-87,20.4c-28,0-51.1-7.4-69.3-22.2c-18.2-14.8-29.3-38.8-33.3-72h205.2
		c2.4-12,3.6-23.2,3.6-33.6c0-38.4-11.6-69.1-34.8-92.1c-23.2-23-54.4-34.5-93.6-34.5c-30,0-55.9,6.8-77.7,20.4
		c-21.8,13.6-38.4,31.9-49.8,54.9c-11.4,23-17.1,48.3-17.1,75.9c0,29.2,6.1,55.6,18.3,79.2c12.2,23.6,30.4,42.4,54.6,56.4
		C1459.3,701.7,1488.4,708.7,1522.4,708.7L1522.4,708.7L1522.4,708.7z M1430,518.5c10.4-42.8,35.8-64.2,76.2-64.2
		c21.6,0,37.8,6,48.6,18c10.8,12,16.2,27.4,16.2,46.2H1430L1430,518.5z M1754.6,708.7c18.4,0,35.4-3.5,51-10.5
		c15.6-7,28.8-16.7,39.6-29.1c6.4,13.6,14.9,23.6,25.5,30c10.6,6.4,26.3,9.6,47.1,9.6h13.8l7.2-51h-7.2c-9.2,0-15.9-1.6-20.1-4.8
		c-4.2-3.2-7-8.6-8.4-16.2c-1.4-7.6-2.1-19.2-2.1-34.8v-69c0-48-8.4-82-25.2-102c-16.8-20-43.6-30-80.4-30
		c-18.8,0-37.1,2.5-54.9,7.5c-17.8,5-34.1,12.1-48.9,21.3l7.2,51c15.2-9.2,29.1-15.7,41.7-19.5c12.6-3.8,25.3-5.7,38.1-5.7
		c20.8,0,35.9,4.3,45.3,12.9c9.4,8.6,14.3,24.3,14.7,47.1c-26.8,0.4-53.2,3.9-79.2,10.5c-26,6.6-48.1,17.7-66.3,33.3
		c-18.2,15.6-27.3,36.4-27.3,62.4c0,26,8.3,47,24.9,63C1707.3,700.7,1728.6,708.7,1754.6,708.7L1754.6,708.7L1754.6,708.7z
		 M1773.8,659.5c-28.8,0-43.2-13.6-43.2-40.8c0-38,36-58.2,108-60.6v69.6c-8,10-17.9,17.8-29.7,23.4
		C1797.1,656.7,1785.4,659.5,1773.8,659.5L1773.8,659.5L1773.8,659.5z M2117.6,708.7c16,0,31.6-1.9,46.8-5.7
		c15.2-3.8,27.6-8.7,37.2-14.7l-7.2-51.6c-22.8,12.4-46.8,18.6-72,18.6c-30,0-53.3-9.2-69.9-27.6c-16.6-18.4-24.9-42.8-24.9-73.2
		c0-31.2,8.3-55.7,24.9-73.5c16.6-17.8,40.1-26.7,70.5-26.7c24.8,0,48.4,5.6,70.8,16.8l7.2-52.8c-22.8-12-49.6-18-80.4-18
		c-34.4,0-63.4,6.8-87,20.4c-23.6,13.6-41.2,32.1-52.8,55.5c-11.6,23.4-17.4,49.9-17.4,79.5c0,28.8,5.9,54.8,17.7,78
		c11.8,23.2,29.3,41.5,52.5,54.9C2056.8,702,2084.8,708.7,2117.6,708.7L2117.6,708.7L2117.6,708.7z M2397.8,400.9
		c-17.2,0-32.3,2.5-45.3,7.5c-13,5-25.3,12.3-36.9,21.9V252.7h-63v450h63V487.9c17.2-22.4,39.6-33.6,67.2-33.6
		c22.8,0,39.6,7.2,50.4,21.6s16.2,37,16.2,67.8v159h62.4v-165c0-42.4-9.6-75.8-28.8-100.2C2463.8,413.1,2435.4,400.9,2397.8,400.9
		L2397.8,400.9L2397.8,400.9z"/>
	<path class="st1" d="M2600,702.7h62.4V456.1h73.8v-49.8h-73.8v-59.4c0-26.8,12.2-40.2,36.6-40.2c8.4,0,17.6,1.4,27.6,4.2l7.2-51.6
		c-15.2-4.4-31-6.6-47.4-6.6c-27.6,0-48.9,7.7-63.9,23.1c-15,15.4-22.5,36.5-22.5,63.3v67.2h-40.2l-7.2,49.8h47.4V702.7L2600,702.7z
		 M2781.8,348.7h62.4v-66h-62.4V348.7L2781.8,348.7z M2781.8,702.7h62.4V406.3h-62.4V702.7L2781.8,702.7z M2997.8,702.7h61.8
		l112.8-296.4h-66l-78,223.2l-78.6-223.2h-66L2997.8,702.7L2997.8,702.7z M3354.8,708.7c34.4,0,67.6-7.6,99.6-22.8l-6-51
		c-26.4,13.6-55.4,20.4-87,20.4c-28,0-51.1-7.4-69.3-22.2c-18.2-14.8-29.3-38.8-33.3-72H3464c2.4-12,3.6-23.2,3.6-33.6
		c0-38.4-11.6-69.1-34.8-92.1c-23.2-23-54.4-34.5-93.6-34.5c-30,0-55.9,6.8-77.7,20.4c-21.8,13.6-38.4,31.9-49.8,54.9
		c-11.4,23-17.1,48.3-17.1,75.9c0,29.2,6.1,55.6,18.3,79.2c12.2,23.6,30.4,42.4,54.6,56.4C3291.7,701.7,3320.8,708.7,3354.8,708.7
		L3354.8,708.7L3354.8,708.7z M3262.4,518.5c10.4-42.8,35.8-64.2,76.2-64.2c21.6,0,37.8,6,48.6,18c10.8,12,16.2,27.4,16.2,46.2
		H3262.4L3262.4,518.5z"/>
</g>
<g>
	<g>
		<path class="st2" d="M296.2,266.2c74.2-49.3,150.8-68.4,156.2-67.1l-264.9-83.4l-10.9,266.5C178.9,375.2,223.3,314.7,296.2,266.2z
			"/>
		<polygon class="st3" points="162.1,889.4 452.4,954.7 264.9,724 15.3,632.7 		"/>
		<polygon class="st3" points="452.5,954.7 742.8,889.4 889.6,632.7 640,724 		"/>
		<polygon class="st1" points="176.7,382.3 187.6,116 6.9,338.2 15.3,632.7 		"/>
		<line class="st4" x1="728.2" y1="382.3" x2="728.2" y2="382.3"/>
		<polygon class="st1" points="717.3,115.8 728.2,382.3 728.2,382.3 889.6,632.7 898,338.2 		"/>
		<path class="st5" d="M189.3,560.4c-24-92.3-15.8-173.3-12.5-178l0,0c0,0-161.4,250.4-161.4,250.4L264.9,724
			C255,713.3,211.6,646.5,189.3,560.4z"/>
		<path class="st5" d="M728.2,382.3L728.2,382.3L728.2,382.3c3.6,12.2,9.4,90.8-13.3,178C692.6,646.1,650.1,712.8,640,724l0,0
			l249.6-91.3L728.2,382.3z"/>
		<path class="st2" d="M608.2,266.2c72.9,48.4,120,116.1,120,116.1l-10.9-266.5l-264.9,83.4C461.8,199.1,536.3,218.5,608.2,266.2z"
			/>
	</g>
	<path class="st6" d="M717.3,115.8L452.5,6.7L187.7,115.8l264.9,83.4L717.3,115.8z"/>
	<g>
		<path class="st2" d="M454.3,758.9c-96.5,0-189.3-34.9-189.4-34.9l187.5,230.7L640,724C632.5,729.7,552.8,758.9,454.3,758.9z"/>
		<path class="st7" d="M640,724L640,724L640,724C640,724,640,724,640,724z"/>
	</g>
</g>
</svg>
